<?xml version="1.0" encoding="UTF-8" standalone="no"?>
<!DOCTYPE svg PUBLIC "-//W3C//DTD SVG 1.1//EN"
 "http://www.w3.org/Graphics/SVG/1.1/DTD/svg11.dtd">
<!-- Generated by graphviz version 2.40.1 (20161225.0304)
 -->
<!-- Title: G Pages: 1 -->
<svg width="562pt" height="1127pt"
 viewBox="0.00 0.00 561.94 1127.00" xmlns="http://www.w3.org/2000/svg" xmlns:xlink="http://www.w3.org/1999/xlink">
<g id="graph0" class="graph" transform="scale(1 1) rotate(0) translate(4 1123)">
<title>G</title>
<polygon fill="#ffffff" stroke="transparent" points="-4,4 -4,-1123 557.9446,-1123 557.9446,4 -4,4"/>
<g id="clust1" class="cluster">
<title>cluster_Global</title>
<path fill="none" stroke="#c0c0c0" d="M20,-8C20,-8 533.9446,-8 533.9446,-8 539.9446,-8 545.9446,-14 545.9446,-20 545.9446,-20 545.9446,-1099 545.9446,-1099 545.9446,-1105 539.9446,-1111 533.9446,-1111 533.9446,-1111 20,-1111 20,-1111 14,-1111 8,-1105 8,-1099 8,-1099 8,-20 8,-20 8,-14 14,-8 20,-8"/>
<text text-anchor="middle" x="276.9723" y="-1098.2" font-family="Times,serif" font-size="11.00" fill="#c0c0c0">Global</text>
</g>
<g id="clust2" class="cluster">
<title>cluster_\RKD</title>
<path fill="none" stroke="#c0c0c0" d="M28,-16C28,-16 525.9446,-16 525.9446,-16 531.9446,-16 537.9446,-22 537.9446,-28 537.9446,-28 537.9446,-1072 537.9446,-1072 537.9446,-1078 531.9446,-1084 525.9446,-1084 525.9446,-1084 28,-1084 28,-1084 22,-1084 16,-1078 16,-1072 16,-1072 16,-28 16,-28 16,-22 22,-16 28,-16"/>
<text text-anchor="middle" x="276.9723" y="-1071.2" font-family="Times,serif" font-size="11.00" fill="#c0c0c0">RKD</text>
</g>
<g id="clust3" class="cluster">
<title>cluster_\RKD\Banklink</title>
<path fill="none" stroke="#c0c0c0" d="M36,-24C36,-24 517.9446,-24 517.9446,-24 523.9446,-24 529.9446,-30 529.9446,-36 529.9446,-36 529.9446,-1045 529.9446,-1045 529.9446,-1051 523.9446,-1057 517.9446,-1057 517.9446,-1057 36,-1057 36,-1057 30,-1057 24,-1051 24,-1045 24,-1045 24,-36 24,-36 24,-30 30,-24 36,-24"/>
<text text-anchor="middle" x="276.9723" y="-1044.2" font-family="Times,serif" font-size="11.00" fill="#c0c0c0">Banklink</text>
</g>
<g id="clust4" class="cluster">
<title>cluster_\RKD\Banklink\Response</title>
<path fill="none" stroke="#c0c0c0" d="M250.8193,-905C250.8193,-905 505.2451,-905 505.2451,-905 511.2451,-905 517.2451,-911 517.2451,-917 517.2451,-917 517.2451,-1018 517.2451,-1018 517.2451,-1024 511.2451,-1030 505.2451,-1030 505.2451,-1030 250.8193,-1030 250.8193,-1030 244.8193,-1030 238.8193,-1024 238.8193,-1018 238.8193,-1018 238.8193,-917 238.8193,-917 238.8193,-911 244.8193,-905 250.8193,-905"/>
<text text-anchor="middle" x="378.0322" y="-1017.2" font-family="Times,serif" font-size="11.00" fill="#c0c0c0">Response</text>
</g>
<g id="clust5" class="cluster">
<title>cluster_\RKD\Banklink\Request</title>
<path fill="none" stroke="#c0c0c0" d="M244.2183,-772C244.2183,-772 501.9446,-772 501.9446,-772 507.9446,-772 513.9446,-778 513.9446,-784 513.9446,-784 513.9446,-885 513.9446,-885 513.9446,-891 507.9446,-897 501.9446,-897 501.9446,-897 244.2183,-897 244.2183,-897 238.2183,-897 232.2183,-891 232.2183,-885 232.2183,-885 232.2183,-784 232.2183,-784 232.2183,-778 238.2183,-772 244.2183,-772"/>
<text text-anchor="middle" x="373.0814" y="-884.2" font-family="Times,serif" font-size="11.00" fill="#c0c0c0">Request</text>
</g>
<g id="clust6" class="cluster">
<title>cluster_\RKD\Banklink\Protocol</title>
<path fill="none" stroke="#c0c0c0" d="M44,-454C44,-454 509.9446,-454 509.9446,-454 515.9446,-454 521.9446,-460 521.9446,-466 521.9446,-466 521.9446,-752 521.9446,-752 521.9446,-758 515.9446,-764 509.9446,-764 509.9446,-764 44,-764 44,-764 38,-764 32,-758 32,-752 32,-752 32,-466 32,-466 32,-460 38,-454 44,-454"/>
<text text-anchor="middle" x="276.9723" y="-751.2" font-family="Times,serif" font-size="11.00" fill="#c0c0c0">Protocol</text>
</g>
<g id="clust7" class="cluster">
<title>cluster_\RKD\Banklink\Protocol\ProtocolTrait</title>
<path fill="none" stroke="#c0c0c0" d="M411.4312,-666C411.4312,-666 492.043,-666 492.043,-666 498.043,-666 504.043,-672 504.043,-678 504.043,-678 504.043,-725 504.043,-725 504.043,-731 498.043,-737 492.043,-737 492.043,-737 411.4312,-737 411.4312,-737 405.4312,-737 399.4312,-731 399.4312,-725 399.4312,-725 399.4312,-678 399.4312,-678 399.4312,-672 405.4312,-666 411.4312,-666"/>
<text text-anchor="middle" x="451.7371" y="-724.2" font-family="Times,serif" font-size="11.00" fill="#c0c0c0">ProtocolTrait</text>
</g>
<g id="clust8" class="cluster">
<title>cluster_\RKD\Banklink\Protocol\Helper</title>
<path fill="none" stroke="#c0c0c0" d="M401.5295,-587C401.5295,-587 501.9446,-587 501.9446,-587 507.9446,-587 513.9446,-593 513.9446,-599 513.9446,-599 513.9446,-646 513.9446,-646 513.9446,-652 507.9446,-658 501.9446,-658 501.9446,-658 401.5295,-658 401.5295,-658 395.5295,-658 389.5295,-652 389.5295,-646 389.5295,-646 389.5295,-599 389.5295,-599 389.5295,-593 395.5295,-587 401.5295,-587"/>
<text text-anchor="middle" x="451.7371" y="-645.2" font-family="Times,serif" font-size="11.00" fill="#c0c0c0">Helper</text>
</g>
<g id="clust9" class="cluster">
<title>cluster_\RKD\Banklink\Protocol\IPizza</title>
<path fill="none" stroke="#c0c0c0" d="M421.3328,-508C421.3328,-508 482.1414,-508 482.1414,-508 488.1414,-508 494.1414,-514 494.1414,-520 494.1414,-520 494.1414,-567 494.1414,-567 494.1414,-573 488.1414,-579 482.1414,-579 482.1414,-579 421.3328,-579 421.3328,-579 415.3328,-579 409.3328,-573 409.3328,-567 409.3328,-567 409.3328,-520 409.3328,-520 409.3328,-514 415.3328,-508 421.3328,-508"/>
<text text-anchor="middle" x="451.7371" y="-566.2" font-family="Times,serif" font-size="11.00" fill="#c0c0c0">IPizza</text>
</g>
<!-- \\RKD\\Banklink\\Response\\PaymentResponse -->
<g id="node1" class="node">
<title>\\RKD\\Banklink\\Response\\PaymentResponse</title>
<polygon fill="none" stroke="#000000" points="509.2532,-1003 394.2209,-1003 394.2209,-967 509.2532,-967 509.2532,-1003"/>
<text text-anchor="middle" x="451.7371" y="-981.7" font-family="Courier,monospace" font-size="11.00" fill="#000000">PaymentResponse</text>
</g>
<!-- \\RKD\\Banklink\\Response\\Response -->
<g id="node2" class="node">
<title>\\RKD\\Banklink\\Response\\Response</title>
<polygon fill="none" stroke="#000000" points="315.5325,-976 246.9148,-976 246.9148,-940 315.5325,-940 315.5325,-976"/>
<text text-anchor="middle" x="281.2236" y="-954.7" font-family="Courier,monospace" font-size="11.00" fill="#000000">Response</text>
</g>
<!-- \\RKD\\Banklink\\Response\\PaymentResponse&#45;&gt;\\RKD\\Banklink\\Response\\Response -->
<g id="edge1" class="edge">
<title>\\RKD\\Banklink\\Response\\PaymentResponse&#45;&gt;\\RKD\\Banklink\\Response\\Response</title>
<path fill="none" stroke="#000000" d="M394.009,-975.859C371.7757,-972.3385 346.7443,-968.3749 325.9215,-965.0777"/>
<polygon fill="none" stroke="#000000" points="326.186,-961.5761 315.7617,-963.4689 325.0912,-968.4899 326.186,-961.5761"/>
</g>
<!-- \\RKD\\Banklink\\Response\\AuthResponse -->
<g id="node3" class="node">
<title>\\RKD\\Banklink\\Response\\AuthResponse</title>
<polygon fill="none" stroke="#000000" points="499.4502,-949 404.0239,-949 404.0239,-913 499.4502,-913 499.4502,-949"/>
<text text-anchor="middle" x="451.7371" y="-927.7" font-family="Courier,monospace" font-size="11.00" fill="#000000">AuthResponse</text>
</g>
<!-- \\RKD\\Banklink\\Response\\AuthResponse&#45;&gt;\\RKD\\Banklink\\Response\\Response -->
<g id="edge9" class="edge">
<title>\\RKD\\Banklink\\Response\\AuthResponse&#45;&gt;\\RKD\\Banklink\\Response\\Response</title>
<path fill="none" stroke="#000000" d="M403.7858,-938.5929C379.2216,-942.4825 349.5107,-947.1871 325.494,-950.99"/>
<polygon fill="none" stroke="#000000" points="324.9108,-947.5386 315.5813,-952.5596 326.0057,-954.4525 324.9108,-947.5386"/>
</g>
<!-- \\RKD\\Banklink\\Request\\Request -->
<g id="node4" class="node">
<title>\\RKD\\Banklink\\Request\\Request</title>
<polygon fill="none" stroke="#000000" points="322.2344,-843 240.2129,-843 240.2129,-807 322.2344,-807 322.2344,-843"/>
<text text-anchor="start" x="248.2183" y="-827.2" font-family="Courier,monospace" font-size="11.00" fill="#000000">«abstract»</text>
<text text-anchor="start" x="258.1199" y="-816.2" font-family="Courier,monospace" font-size="11.00" fill="#000000">Request</text>
</g>
<!-- \\RKD\\Banklink\\Request\\PaymentRequest -->
<g id="node5" class="node">
<title>\\RKD\\Banklink\\Request\\PaymentRequest</title>
<polygon fill="none" stroke="#000000" points="506.1529,-870 397.3212,-870 397.3212,-834 506.1529,-834 506.1529,-870"/>
<text text-anchor="middle" x="451.7371" y="-848.7" font-family="Courier,monospace" font-size="11.00" fill="#000000">PaymentRequest</text>
</g>
<!-- \\RKD\\Banklink\\Request\\PaymentRequest&#45;&gt;\\RKD\\Banklink\\Request\\Request -->
<g id="edge10" class="edge">
<title>\\RKD\\Banklink\\Request\\PaymentRequest&#45;&gt;\\RKD\\Banklink\\Request\\Request</title>
<path fill="none" stroke="#000000" d="M397.3167,-843.3828C376.5556,-840.0954 352.975,-836.3615 332.5145,-833.1217"/>
<polygon fill="none" stroke="#000000" points="332.8642,-829.6335 322.4399,-831.5264 331.7694,-836.5474 332.8642,-829.6335"/>
</g>
<!-- \\RKD\\Banklink\\Request\\AuthRequest -->
<g id="node6" class="node">
<title>\\RKD\\Banklink\\Request\\AuthRequest</title>
<polygon fill="none" stroke="#000000" points="495.8497,-816 407.6244,-816 407.6244,-780 495.8497,-780 495.8497,-816"/>
<text text-anchor="middle" x="451.7371" y="-794.7" font-family="Courier,monospace" font-size="11.00" fill="#000000">AuthRequest</text>
</g>
<!-- \\RKD\\Banklink\\Request\\AuthRequest&#45;&gt;\\RKD\\Banklink\\Request\\Request -->
<g id="edge11" class="edge">
<title>\\RKD\\Banklink\\Request\\AuthRequest&#45;&gt;\\RKD\\Banklink\\Request\\Request</title>
<path fill="none" stroke="#000000" d="M407.3818,-805.0234C384.4148,-808.6602 356.2581,-813.1186 332.3763,-816.9002"/>
<polygon fill="none" stroke="#000000" points="331.76,-813.4541 322.4305,-818.4751 332.8549,-820.368 331.76,-813.4541"/>
</g>
<!-- \\RKD\\Banklink\\Protocol\\ProtocolTrait\\NoAuthTrait -->
<g id="node7" class="node">
<title>\\RKD\\Banklink\\Protocol\\ProtocolTrait\\NoAuthTrait</title>
<polygon fill="none" stroke="#000000" points="495.8497,-710 407.6244,-710 407.6244,-674 495.8497,-674 495.8497,-710"/>
<text text-anchor="middle" x="451.7371" y="-688.7" font-family="Courier,monospace" font-size="11.00" fill="#000000">NoAuthTrait</text>
</g>
<!-- \\RKD\\Banklink\\Protocol\\Helper\\ProtocolHelper -->
<g id="node8" class="node">
<title>\\RKD\\Banklink\\Protocol\\Helper\\ProtocolHelper</title>
<polygon fill="none" stroke="#000000" points="506.1529,-631 397.3212,-631 397.3212,-595 506.1529,-595 506.1529,-631"/>
<text text-anchor="middle" x="451.7371" y="-609.7" font-family="Courier,monospace" font-size="11.00" fill="#000000">ProtocolHelper</text>
</g>
<!-- \\RKD\\Banklink\\Protocol\\IPizza\\Services -->
<g id="node9" class="node">
<title>\\RKD\\Banklink\\Protocol\\IPizza\\Services</title>
<polygon fill="none" stroke="#000000" points="486.0459,-552 417.4282,-552 417.4282,-516 486.0459,-516 486.0459,-552"/>
<text text-anchor="middle" x="451.7371" y="-530.7" font-family="Courier,monospace" font-size="11.00" fill="#000000">Services</text>
</g>
<!-- \\RKD\\Banklink\\Protocol\\LiisiPayment -->
<g id="node10" class="node">
<title>\\RKD\\Banklink\\Protocol\\LiisiPayment</title>
<polygon fill="none" stroke="#000000" points="499.4502,-498 404.0239,-498 404.0239,-462 499.4502,-462 499.4502,-498"/>
<text text-anchor="middle" x="451.7371" y="-476.7" font-family="Courier,monospace" font-size="11.00" fill="#000000">LiisiPayment</text>
</g>
<!-- \\RKD\\Banklink\\Protocol\\IPizza -->
<g id="node11" class="node">
<title>\\RKD\\Banklink\\Protocol\\IPizza</title>
<polygon fill="none" stroke="#000000" points="308.8315,-554 253.6158,-554 253.6158,-518 308.8315,-518 308.8315,-554"/>
<text text-anchor="middle" x="281.2236" y="-532.7" font-family="Courier,monospace" font-size="11.00" fill="#000000">IPizza</text>
</g>
<!-- \\RKD\\Banklink\\Protocol\\LiisiPayment&#45;&gt;\\RKD\\Banklink\\Protocol\\IPizza -->
<g id="edge6" class="edge">
<title>\\RKD\\Banklink\\Protocol\\LiisiPayment&#45;&gt;\\RKD\\Banklink\\Protocol\\IPizza</title>
<path fill="none" stroke="#000000" d="M403.7858,-495.7481C376.8282,-504.6015 343.6723,-515.4906 318.6462,-523.7097"/>
<polygon fill="none" stroke="#000000" points="317.552,-520.385 309.1433,-526.8306 319.7362,-527.0356 317.552,-520.385"/>
</g>
<!-- \\RKD\\Banklink\\Protocol\\ProtocolInterface -->
<g id="node13" class="node">
<title>\\RKD\\Banklink\\Protocol\\ProtocolInterface</title>
<polygon fill="none" stroke="#000000" points="168.3276,-527 39.8907,-527 39.8907,-491 168.3276,-491 168.3276,-527"/>
<text text-anchor="middle" x="104.1091" y="-505.7" font-family="Courier,monospace" font-size="11.00" fill="#000000">ProtocolInterface</text>
</g>
<!-- \\RKD\\Banklink\\Protocol\\IPizza&#45;&gt;\\RKD\\Banklink\\Protocol\\ProtocolInterface -->
<g id="edge12" class="edge">
<title>\\RKD\\Banklink\\Protocol\\IPizza&#45;&gt;\\RKD\\Banklink\\Protocol\\ProtocolInterface</title>
<path fill="none" stroke="#000000" stroke-dasharray="1,5" d="M253.5495,-531.7813C233.3622,-528.7038 204.9938,-524.3792 178.3907,-520.3238"/>
<polygon fill="none" stroke="#000000" points="178.7152,-516.8329 168.3019,-518.7858 177.6603,-523.7529 178.7152,-516.8329"/>
</g>
<!-- \\RKD\\Banklink\\Protocol\\ECommerce -->
<g id="node12" class="node">
<title>\\RKD\\Banklink\\Protocol\\ECommerce</title>
<polygon fill="none" stroke="#000000" points="319.1344,-500 243.3128,-500 243.3128,-464 319.1344,-464 319.1344,-500"/>
<text text-anchor="middle" x="281.2236" y="-478.7" font-family="Courier,monospace" font-size="11.00" fill="#000000">ECommerce</text>
</g>
<!-- \\RKD\\Banklink\\Protocol\\ECommerce&#45;&gt;\\RKD\\Banklink\\Protocol\\ProtocolInterface -->
<g id="edge13" class="edge">
<title>\\RKD\\Banklink\\Protocol\\ECommerce&#45;&gt;\\RKD\\Banklink\\Protocol\\ProtocolInterface</title>
<path fill="none" stroke="#000000" stroke-dasharray="1,5" d="M243.2281,-487.7922C224.3651,-490.6677 200.8994,-494.2449 178.6456,-497.6374"/>
<polygon fill="none" stroke="#000000" points="177.8854,-494.2127 168.5271,-499.1799 178.9404,-501.1328 177.8854,-494.2127"/>
</g>
<!-- \\RKD\\Banklink\\LHV -->
<g id="node14" class="node">
<title>\\RKD\\Banklink\\LHV</title>
<polygon fill="none" stroke="#000000" points="308.2236,-446 254.2236,-446 254.2236,-410 308.2236,-410 308.2236,-446"/>
<text text-anchor="middle" x="281.2236" y="-424.7" font-family="Courier,monospace" font-size="11.00" fill="#000000">LHV</text>
</g>
<!-- \\RKD\\Banklink\\Banklink -->
<g id="node17" class="node">
<title>\\RKD\\Banklink\\Banklink</title>
<polygon fill="none" stroke="#000000" points="145.1199,-257 63.0984,-257 63.0984,-221 145.1199,-221 145.1199,-257"/>
<text text-anchor="start" x="71.1038" y="-241.2" font-family="Courier,monospace" font-size="11.00" fill="#000000">«abstract»</text>
<text text-anchor="start" x="77.7048" y="-230.2" font-family="Courier,monospace" font-size="11.00" fill="#000000">Banklink</text>
</g>
<!-- \\RKD\\Banklink\\LHV&#45;&gt;\\RKD\\Banklink\\Banklink -->
<g id="edge2" class="edge">
<title>\\RKD\\Banklink\\LHV&#45;&gt;\\RKD\\Banklink\\Banklink</title>
<path fill="none" stroke="#000000" d="M254.0374,-415.5149C246.5709,-411.4407 238.7417,-406.524 232.2183,-401 184.618,-360.6919 142.555,-300.3621 120.4827,-265.8324"/>
<polygon fill="none" stroke="#000000" points="123.3498,-263.8173 115.0547,-257.2262 117.4291,-267.5516 123.3498,-263.8173"/>
</g>
<!-- \\RKD\\Banklink\\Nordea -->
<g id="node15" class="node">
<title>\\RKD\\Banklink\\Nordea</title>
<polygon fill="none" stroke="#000000" points="308.8315,-176 253.6158,-176 253.6158,-140 308.8315,-140 308.8315,-176"/>
<text text-anchor="middle" x="281.2236" y="-154.7" font-family="Courier,monospace" font-size="11.00" fill="#000000">Nordea</text>
</g>
<!-- \\RKD\\Banklink\\Nordea&#45;&gt;\\RKD\\Banklink\\Banklink -->
<g id="edge3" class="edge">
<title>\\RKD\\Banklink\\Nordea&#45;&gt;\\RKD\\Banklink\\Banklink</title>
<path fill="none" stroke="#000000" d="M253.5495,-170.6563C226.7186,-182.9269 185.4358,-201.8068 153.0537,-216.6161"/>
<polygon fill="none" stroke="#000000" points="151.3852,-213.5304 143.7468,-220.8725 154.2966,-219.8963 151.3852,-213.5304"/>
</g>
<!-- \\RKD\\Banklink\\Estcard -->
<g id="node16" class="node">
<title>\\RKD\\Banklink\\Estcard</title>
<polygon fill="none" stroke="#000000" points="312.4315,-392 250.0158,-392 250.0158,-356 312.4315,-356 312.4315,-392"/>
<text text-anchor="middle" x="281.2236" y="-370.7" font-family="Courier,monospace" font-size="11.00" fill="#000000">Estcard</text>
</g>
<!-- \\RKD\\Banklink\\Estcard&#45;&gt;\\RKD\\Banklink\\Banklink -->
<g id="edge4" class="edge">
<title>\\RKD\\Banklink\\Estcard&#45;&gt;\\RKD\\Banklink\\Banklink</title>
<path fill="none" stroke="#000000" d="M250.0819,-358.0503C244.026,-354.6142 237.8225,-350.8506 232.2183,-347 195.0067,-321.4324 155.828,-287.1703 130.7447,-264.1535"/>
<polygon fill="none" stroke="#000000" points="132.8352,-261.3195 123.1164,-257.1009 128.0832,-266.4595 132.8352,-261.3195"/>
</g>
<!-- \\RKD\\Banklink\\Swedbank -->
<g id="node18" class="node">
<title>\\RKD\\Banklink\\Swedbank</title>
<polygon fill="none" stroke="#000000" points="315.5325,-338 246.9148,-338 246.9148,-302 315.5325,-302 315.5325,-338"/>
<text text-anchor="middle" x="281.2236" y="-316.7" font-family="Courier,monospace" font-size="11.00" fill="#000000">Swedbank</text>
</g>
<!-- \\RKD\\Banklink\\Swedbank&#45;&gt;\\RKD\\Banklink\\Banklink -->
<g id="edge5" class="edge">
<title>\\RKD\\Banklink\\Swedbank&#45;&gt;\\RKD\\Banklink\\Banklink</title>
<path fill="none" stroke="#000000" d="M246.6537,-304.1901C219.9468,-291.9762 182.6467,-274.9177 152.901,-261.314"/>
<polygon fill="none" stroke="#000000" points="154.0815,-258.0053 143.5317,-257.0292 151.1701,-264.3712 154.0815,-258.0053"/>
</g>
<!-- \\RKD\\Banklink\\Danskebank -->
<g id="node19" class="node">
<title>\\RKD\\Banklink\\Danskebank</title>
<polygon fill="none" stroke="#000000" points="322.2344,-284 240.2129,-284 240.2129,-248 322.2344,-248 322.2344,-284"/>
<text text-anchor="middle" x="281.2236" y="-262.7" font-family="Courier,monospace" font-size="11.00" fill="#000000">Danskebank</text>
</g>
<!-- \\RKD\\Banklink\\Danskebank&#45;&gt;\\RKD\\Banklink\\Banklink -->
<g id="edge7" class="edge">
<title>\\RKD\\Banklink\\Danskebank&#45;&gt;\\RKD\\Banklink\\Banklink</title>
<path fill="none" stroke="#000000" d="M240.1448,-259.7378C214.8635,-255.8838 182.2528,-250.9125 155.2982,-246.8034"/>
<polygon fill="none" stroke="#000000" points="155.6849,-243.322 145.2716,-245.275 154.6299,-250.2421 155.6849,-243.322"/>
</g>
<!-- \\RKD\\Banklink\\Liisi -->
<g id="node20" class="node">
<title>\\RKD\\Banklink\\Liisi</title>
<polygon fill="none" stroke="#000000" points="308.2236,-230 254.2236,-230 254.2236,-194 308.2236,-194 308.2236,-230"/>
<text text-anchor="middle" x="281.2236" y="-208.7" font-family="Courier,monospace" font-size="11.00" fill="#000000">Liisi</text>
</g>
<!-- \\RKD\\Banklink\\Liisi&#45;&gt;\\RKD\\Banklink\\Banklink -->
<g id="edge8" class="edge">
<title>\\RKD\\Banklink\\Liisi&#45;&gt;\\RKD\\Banklink\\Banklink</title>
<path fill="none" stroke="#000000" d="M253.9376,-216.1596C227.7575,-220.1506 187.5643,-226.2778 155.3962,-231.1816"/>
<polygon fill="none" stroke="#000000" points="154.6203,-227.7594 145.262,-232.7265 155.6753,-234.6794 154.6203,-227.7594"/>
</g>
<!-- \\RKD\\Banklink\\Luminor -->
<g id="node21" class="node">
<title>\\RKD\\Banklink\\Luminor</title>
<polygon fill="none" stroke="#000000" points="482.9449,-176 420.5292,-176 420.5292,-140 482.9449,-140 482.9449,-176"/>
<text text-anchor="middle" x="451.7371" y="-154.7" font-family="Courier,monospace" font-size="11.00" fill="#000000">Luminor</text>
</g>
<!-- \\RKD\\Banklink\\Luminor&#45;&gt;\\RKD\\Banklink\\Nordea -->
<g id="edge14" class="edge">
<title>\\RKD\\Banklink\\Luminor&#45;&gt;\\RKD\\Banklink\\Nordea</title>
<path fill="none" stroke="#000000" d="M420.4623,-158C391.909,-158 349.6327,-158 319.1602,-158"/>
<polygon fill="none" stroke="#000000" points="318.9159,-154.5001 308.9159,-158 318.9158,-161.5001 318.9159,-154.5001"/>
</g>
<!-- \\RKD\\Banklink\\CoopPank -->
<g id="node22" class="node">
<title>\\RKD\\Banklink\\CoopPank</title>
<polygon fill="none" stroke="#000000" points="315.5325,-122 246.9148,-122 246.9148,-86 315.5325,-86 315.5325,-122"/>
<text text-anchor="middle" x="281.2236" y="-100.7" font-family="Courier,monospace" font-size="11.00" fill="#000000">CoopPank</text>
</g>
<!-- \\RKD\\Banklink\\CoopPank&#45;&gt;\\RKD\\Banklink\\Banklink -->
<g id="edge15" class="edge">
<title>\\RKD\\Banklink\\CoopPank&#45;&gt;\\RKD\\Banklink\\Banklink</title>
<path fill="none" stroke="#000000" d="M246.6974,-121.8964C241.7425,-124.7867 236.7817,-127.8645 232.2183,-131 195.0067,-156.5676 155.828,-190.8297 130.7447,-213.8465"/>
<polygon fill="none" stroke="#000000" points="128.0832,-211.5405 123.1164,-220.8991 132.8352,-216.6805 128.0832,-211.5405"/>
</g>
<!-- \\RKD\\Banklink\\SEB -->
<g id="node23" class="node">
<title>\\RKD\\Banklink\\SEB</title>
<polygon fill="none" stroke="#000000" points="308.2236,-68 254.2236,-68 254.2236,-32 308.2236,-32 308.2236,-68"/>
<text text-anchor="middle" x="281.2236" y="-46.7" font-family="Courier,monospace" font-size="11.00" fill="#000000">SEB</text>
</g>
<!-- \\RKD\\Banklink\\SEB&#45;&gt;\\RKD\\Banklink\\Banklink -->
<g id="edge16" class="edge">
<title>\\RKD\\Banklink\\SEB&#45;&gt;\\RKD\\Banklink\\Banklink</title>
<path fill="none" stroke="#000000" d="M254.0374,-62.4851C246.5709,-66.5593 238.7417,-71.476 232.2183,-77 184.618,-117.3081 142.555,-177.6379 120.4827,-212.1676"/>
<polygon fill="none" stroke="#000000" points="117.4291,-210.4484 115.0547,-220.7738 123.3498,-214.1827 117.4291,-210.4484"/>
</g>
</g>
</svg>
