<?xml version="1.0" encoding="UTF-8" standalone="no"?>
<!DOCTYPE svg PUBLIC "-//W3C//DTD SVG 1.1//EN"
 "http://www.w3.org/Graphics/SVG/1.1/DTD/svg11.dtd">
<!-- Generated by graphviz version 2.38.0 (20140413.2041)
 -->
<!-- Title: G Pages: 1 -->
<svg width="740pt" height="1136pt"
 viewBox="0.00 0.00 739.50 1136.00" xmlns="http://www.w3.org/2000/svg" xmlns:xlink="http://www.w3.org/1999/xlink">
<g id="graph0" class="graph" transform="scale(1 1) rotate(0) translate(4 1132)">
<title>G</title>
<polygon fill="white" stroke="none" points="-4,4 -4,-1132 735.5,-1132 735.5,4 -4,4"/>
<g id="clust1" class="cluster"><title>cluster_Global</title>
<path fill="none" stroke="gray" d="M20,-8C20,-8 711.5,-8 711.5,-8 717.5,-8 723.5,-14 723.5,-20 723.5,-20 723.5,-1108 723.5,-1108 723.5,-1114 717.5,-1120 711.5,-1120 711.5,-1120 20,-1120 20,-1120 14,-1120 8,-1114 8,-1108 8,-1108 8,-20 8,-20 8,-14 14,-8 20,-8"/>
<text text-anchor="middle" x="365.75" y="-1107.2" font-family="Times,serif" font-size="11.00" fill="gray">Global</text>
</g>
<g id="clust2" class="cluster"><title>cluster_\RKD</title>
<path fill="none" stroke="gray" d="M28,-16C28,-16 703.5,-16 703.5,-16 709.5,-16 715.5,-22 715.5,-28 715.5,-28 715.5,-1080 715.5,-1080 715.5,-1086 709.5,-1092 703.5,-1092 703.5,-1092 28,-1092 28,-1092 22,-1092 16,-1086 16,-1080 16,-1080 16,-28 16,-28 16,-22 22,-16 28,-16"/>
<text text-anchor="middle" x="365.75" y="-1079.2" font-family="Times,serif" font-size="11.00" fill="gray">RKD</text>
</g>
<g id="clust3" class="cluster"><title>cluster_\RKD\Banklink</title>
<path fill="none" stroke="gray" d="M36,-24C36,-24 695.5,-24 695.5,-24 701.5,-24 707.5,-30 707.5,-36 707.5,-36 707.5,-1052 707.5,-1052 707.5,-1058 701.5,-1064 695.5,-1064 695.5,-1064 36,-1064 36,-1064 30,-1064 24,-1058 24,-1052 24,-1052 24,-36 24,-36 24,-30 30,-24 36,-24"/>
<text text-anchor="middle" x="365.75" y="-1051.2" font-family="Times,serif" font-size="11.00" fill="gray">Banklink</text>
</g>
<g id="clust4" class="cluster"><title>cluster_\RKD\Banklink\Response</title>
<path fill="none" stroke="gray" d="M416.5,-910C416.5,-910 683,-910 683,-910 689,-910 695,-916 695,-922 695,-922 695,-1024 695,-1024 695,-1030 689,-1036 683,-1036 683,-1036 416.5,-1036 416.5,-1036 410.5,-1036 404.5,-1030 404.5,-1024 404.5,-1024 404.5,-922 404.5,-922 404.5,-916 410.5,-910 416.5,-910"/>
<text text-anchor="middle" x="549.75" y="-1023.2" font-family="Times,serif" font-size="11.00" fill="gray">Response</text>
</g>
<g id="clust5" class="cluster"><title>cluster_\RKD\Banklink\Request</title>
<path fill="none" stroke="gray" d="M410,-776C410,-776 679.5,-776 679.5,-776 685.5,-776 691.5,-782 691.5,-788 691.5,-788 691.5,-890 691.5,-890 691.5,-896 685.5,-902 679.5,-902 679.5,-902 410,-902 410,-902 404,-902 398,-896 398,-890 398,-890 398,-788 398,-788 398,-782 404,-776 410,-776"/>
<text text-anchor="middle" x="544.75" y="-889.2" font-family="Times,serif" font-size="11.00" fill="gray">Request</text>
</g>
<g id="clust6" class="cluster"><title>cluster_\RKD\Banklink\Protocol</title>
<path fill="none" stroke="gray" d="M44,-454C44,-454 687.5,-454 687.5,-454 693.5,-454 699.5,-460 699.5,-466 699.5,-466 699.5,-756 699.5,-756 699.5,-762 693.5,-768 687.5,-768 687.5,-768 44,-768 44,-768 38,-768 32,-762 32,-756 32,-756 32,-466 32,-466 32,-460 38,-454 44,-454"/>
<text text-anchor="middle" x="365.75" y="-755.2" font-family="Times,serif" font-size="11.00" fill="gray">Protocol</text>
</g>
<g id="clust7" class="cluster"><title>cluster_\RKD\Banklink\Protocol\Helper</title>
<path fill="none" stroke="gray" d="M576.5,-668C576.5,-668 679.5,-668 679.5,-668 685.5,-668 691.5,-674 691.5,-680 691.5,-680 691.5,-728 691.5,-728 691.5,-734 685.5,-740 679.5,-740 679.5,-740 576.5,-740 576.5,-740 570.5,-740 564.5,-734 564.5,-728 564.5,-728 564.5,-680 564.5,-680 564.5,-674 570.5,-668 576.5,-668"/>
<text text-anchor="middle" x="628" y="-727.2" font-family="Times,serif" font-size="11.00" fill="gray">Helper</text>
</g>
<g id="clust8" class="cluster"><title>cluster_\RKD\Banklink\Protocol\IPizza</title>
<path fill="none" stroke="gray" d="M596.5,-588C596.5,-588 659.5,-588 659.5,-588 665.5,-588 671.5,-594 671.5,-600 671.5,-600 671.5,-648 671.5,-648 671.5,-654 665.5,-660 659.5,-660 659.5,-660 596.5,-660 596.5,-660 590.5,-660 584.5,-654 584.5,-648 584.5,-648 584.5,-600 584.5,-600 584.5,-594 590.5,-588 596.5,-588"/>
<text text-anchor="middle" x="628" y="-647.2" font-family="Times,serif" font-size="11.00" fill="gray">IPizza</text>
</g>
<g id="clust9" class="cluster"><title>cluster_\RKD\Banklink\Protocol\ProtocolTrait</title>
<path fill="none" stroke="gray" d="M586.5,-508C586.5,-508 669.5,-508 669.5,-508 675.5,-508 681.5,-514 681.5,-520 681.5,-520 681.5,-568 681.5,-568 681.5,-574 675.5,-580 669.5,-580 669.5,-580 586.5,-580 586.5,-580 580.5,-580 574.5,-574 574.5,-568 574.5,-568 574.5,-520 574.5,-520 574.5,-514 580.5,-508 586.5,-508"/>
<text text-anchor="middle" x="628" y="-567.2" font-family="Times,serif" font-size="11.00" fill="gray">ProtocolTrait</text>
</g>
<!-- \\RKD\\Banklink\\Response\\AuthResponse -->
<g id="node1" class="node"><title>\\RKD\\Banklink\\Response\\AuthResponse</title>
<polygon fill="none" stroke="black" points="677,-1008 579,-1008 579,-972 677,-972 677,-1008"/>
<text text-anchor="middle" x="628" y="-987.2" font-family="Courier,monospace" font-size="11.00">AuthResponse</text>
</g>
<!-- \\RKD\\Banklink\\Response\\Response -->
<g id="node3" class="node"><title>\\RKD\\Banklink\\Response\\Response</title>
<polygon fill="none" stroke="black" points="483.5,-981 412.5,-981 412.5,-945 483.5,-945 483.5,-981"/>
<text text-anchor="middle" x="448" y="-960.2" font-family="Courier,monospace" font-size="11.00">Response</text>
</g>
<!-- \\RKD\\Banklink\\Response\\AuthResponse&#45;&gt;\\RKD\\Banklink\\Response\\Response -->
<g id="edge4" class="edge"><title>\\RKD\\Banklink\\Response\\AuthResponse&#45;&gt;\\RKD\\Banklink\\Response\\Response</title>
<path fill="none" stroke="black" d="M578.831,-982.693C552.29,-978.668 519.563,-973.703 493.608,-969.766"/>
<polygon fill="none" stroke="black" points="494.072,-966.297 483.66,-968.257 493.022,-973.218 494.072,-966.297"/>
</g>
<!-- \\RKD\\Banklink\\Response\\PaymentResponse -->
<g id="node2" class="node"><title>\\RKD\\Banklink\\Response\\PaymentResponse</title>
<polygon fill="none" stroke="black" points="687,-954 569,-954 569,-918 687,-918 687,-954"/>
<text text-anchor="middle" x="628" y="-933.2" font-family="Courier,monospace" font-size="11.00">PaymentResponse</text>
</g>
<!-- \\RKD\\Banklink\\Response\\PaymentResponse&#45;&gt;\\RKD\\Banklink\\Response\\Response -->
<g id="edge5" class="edge"><title>\\RKD\\Banklink\\Response\\PaymentResponse&#45;&gt;\\RKD\\Banklink\\Response\\Response</title>
<path fill="none" stroke="black" d="M568.716,-944.841C544.361,-948.535 516.508,-952.76 493.8,-956.205"/>
<polygon fill="none" stroke="black" points="493.121,-952.767 483.759,-957.728 494.171,-959.688 493.121,-952.767"/>
</g>
<!-- \\RKD\\Banklink\\Request\\Request -->
<g id="node4" class="node"><title>\\RKD\\Banklink\\Request\\Request</title>
<polygon fill="none" stroke="black" points="490,-847 406,-847 406,-811 490,-811 490,-847"/>
<text text-anchor="start" x="414" y="-832.2" font-family="Courier,monospace" font-size="11.00">«abstract»</text>
<text text-anchor="start" x="424" y="-820.2" font-family="Courier,monospace" font-size="11.00">Request</text>
</g>
<!-- \\RKD\\Banklink\\Request\\AuthRequest -->
<g id="node5" class="node"><title>\\RKD\\Banklink\\Request\\AuthRequest</title>
<polygon fill="none" stroke="black" points="673.5,-874 582.5,-874 582.5,-838 673.5,-838 673.5,-874"/>
<text text-anchor="middle" x="628" y="-853.2" font-family="Courier,monospace" font-size="11.00">AuthRequest</text>
</g>
<!-- \\RKD\\Banklink\\Request\\AuthRequest&#45;&gt;\\RKD\\Banklink\\Request\\Request -->
<g id="edge8" class="edge"><title>\\RKD\\Banklink\\Request\\AuthRequest&#45;&gt;\\RKD\\Banklink\\Request\\Request</title>
<path fill="none" stroke="black" d="M582.083,-849.187C557.171,-845.408 526.093,-840.694 500.236,-836.772"/>
<polygon fill="none" stroke="black" points="500.654,-833.295 490.242,-835.256 499.604,-840.216 500.654,-833.295"/>
</g>
<!-- \\RKD\\Banklink\\Request\\PaymentRequest -->
<g id="node6" class="node"><title>\\RKD\\Banklink\\Request\\PaymentRequest</title>
<polygon fill="none" stroke="black" points="683.5,-820 572.5,-820 572.5,-784 683.5,-784 683.5,-820"/>
<text text-anchor="middle" x="628" y="-799.2" font-family="Courier,monospace" font-size="11.00">PaymentRequest</text>
</g>
<!-- \\RKD\\Banklink\\Request\\PaymentRequest&#45;&gt;\\RKD\\Banklink\\Request\\Request -->
<g id="edge9" class="edge"><title>\\RKD\\Banklink\\Request\\PaymentRequest&#45;&gt;\\RKD\\Banklink\\Request\\Request</title>
<path fill="none" stroke="black" d="M572.142,-810.321C549.199,-813.801 522.688,-817.823 500.155,-821.241"/>
<polygon fill="none" stroke="black" points="499.47,-817.804 490.108,-822.764 500.52,-824.725 499.47,-817.804"/>
</g>
<!-- \\RKD\\Banklink\\Protocol\\Helper\\ProtocolHelper -->
<g id="node7" class="node"><title>\\RKD\\Banklink\\Protocol\\Helper\\ProtocolHelper</title>
<polygon fill="none" stroke="black" points="683.5,-712 572.5,-712 572.5,-676 683.5,-676 683.5,-712"/>
<text text-anchor="middle" x="628" y="-691.2" font-family="Courier,monospace" font-size="11.00">ProtocolHelper</text>
</g>
<!-- \\RKD\\Banklink\\Protocol\\IPizza\\Services -->
<g id="node8" class="node"><title>\\RKD\\Banklink\\Protocol\\IPizza\\Services</title>
<polygon fill="none" stroke="black" points="663.5,-632 592.5,-632 592.5,-596 663.5,-596 663.5,-632"/>
<text text-anchor="middle" x="628" y="-611.2" font-family="Courier,monospace" font-size="11.00">Services</text>
</g>
<!-- \\RKD\\Banklink\\Protocol\\ProtocolTrait\\NoAuthTrait -->
<g id="node9" class="node"><title>\\RKD\\Banklink\\Protocol\\ProtocolTrait\\NoAuthTrait</title>
<polygon fill="none" stroke="black" points="673.5,-552 582.5,-552 582.5,-516 673.5,-516 673.5,-552"/>
<text text-anchor="middle" x="628" y="-531.2" font-family="Courier,monospace" font-size="11.00">NoAuthTrait</text>
</g>
<!-- \\RKD\\Banklink\\Protocol\\LiiziPayment -->
<g id="node10" class="node"><title>\\RKD\\Banklink\\Protocol\\LiiziPayment</title>
<polygon fill="none" stroke="black" points="677,-498 579,-498 579,-462 677,-462 677,-498"/>
<text text-anchor="middle" x="628" y="-477.2" font-family="Courier,monospace" font-size="11.00">LiiziPayment</text>
</g>
<!-- \\RKD\\Banklink\\Protocol\\LiisiPayment -->
<g id="node11" class="node"><title>\\RKD\\Banklink\\Protocol\\LiisiPayment</title>
<polygon fill="none" stroke="black" points="497,-526 399,-526 399,-490 497,-490 497,-526"/>
<text text-anchor="middle" x="448" y="-505.2" font-family="Courier,monospace" font-size="11.00">LiisiPayment</text>
</g>
<!-- \\RKD\\Banklink\\Protocol\\LiiziPayment&#45;&gt;\\RKD\\Banklink\\Protocol\\LiisiPayment -->
<g id="edge10" class="edge"><title>\\RKD\\Banklink\\Protocol\\LiiziPayment&#45;&gt;\\RKD\\Banklink\\Protocol\\LiisiPayment</title>
<path fill="none" stroke="black" d="M578.831,-487.577C556.767,-491.048 530.43,-495.191 507.261,-498.835"/>
<polygon fill="none" stroke="black" points="506.542,-495.405 497.208,-500.417 507.63,-502.32 506.542,-495.405"/>
</g>
<!-- \\RKD\\Banklink\\Protocol\\IPizza -->
<g id="node12" class="node"><title>\\RKD\\Banklink\\Protocol\\IPizza</title>
<polygon fill="none" stroke="black" points="313.5,-552 256.5,-552 256.5,-516 313.5,-516 313.5,-552"/>
<text text-anchor="middle" x="285" y="-531.2" font-family="Courier,monospace" font-size="11.00">IPizza</text>
</g>
<!-- \\RKD\\Banklink\\Protocol\\LiisiPayment&#45;&gt;\\RKD\\Banklink\\Protocol\\IPizza -->
<g id="edge11" class="edge"><title>\\RKD\\Banklink\\Protocol\\LiisiPayment&#45;&gt;\\RKD\\Banklink\\Protocol\\IPizza</title>
<path fill="none" stroke="black" d="M398.695,-515.801C374.706,-519.675 346.152,-524.286 323.788,-527.898"/>
<polygon fill="none" stroke="black" points="322.985,-524.482 313.671,-529.531 324.101,-531.392 322.985,-524.482"/>
</g>
<!-- \\RKD\\Banklink\\Protocol\\ProtocolInterface -->
<g id="node14" class="node"><title>\\RKD\\Banklink\\Protocol\\ProtocolInterface</title>
<polygon fill="none" stroke="black" points="171,-525 40,-525 40,-489 171,-489 171,-525"/>
<text text-anchor="middle" x="105.5" y="-504.2" font-family="Courier,monospace" font-size="11.00">ProtocolInterface</text>
</g>
<!-- \\RKD\\Banklink\\Protocol\\IPizza&#45;&gt;\\RKD\\Banklink\\Protocol\\ProtocolInterface -->
<g id="edge12" class="edge"><title>\\RKD\\Banklink\\Protocol\\IPizza&#45;&gt;\\RKD\\Banklink\\Protocol\\ProtocolInterface</title>
<path fill="none" stroke="black" stroke-dasharray="1,5" d="M256.266,-529.781C236.121,-526.717 207.847,-522.416 181.285,-518.376"/>
<polygon fill="none" stroke="black" points="181.622,-514.887 171.209,-516.843 180.569,-521.807 181.622,-514.887"/>
</g>
<!-- \\RKD\\Banklink\\Protocol\\ECommerce -->
<g id="node13" class="node"><title>\\RKD\\Banklink\\Protocol\\ECommerce</title>
<polygon fill="none" stroke="black" points="323.5,-498 246.5,-498 246.5,-462 323.5,-462 323.5,-498"/>
<text text-anchor="middle" x="285" y="-477.2" font-family="Courier,monospace" font-size="11.00">ECommerce</text>
</g>
<!-- \\RKD\\Banklink\\Protocol\\ECommerce&#45;&gt;\\RKD\\Banklink\\Protocol\\ProtocolInterface -->
<g id="edge13" class="edge"><title>\\RKD\\Banklink\\Protocol\\ECommerce&#45;&gt;\\RKD\\Banklink\\Protocol\\ProtocolInterface</title>
<path fill="none" stroke="black" stroke-dasharray="1,5" d="M246.357,-485.726C227.472,-488.599 203.903,-492.184 181.527,-495.588"/>
<polygon fill="none" stroke="black" points="180.711,-492.171 171.351,-497.135 181.763,-499.092 180.711,-492.171"/>
</g>
<!-- \\RKD\\Banklink\\Krediidipank -->
<g id="node15" class="node"><title>\\RKD\\Banklink\\Krediidipank</title>
<polygon fill="none" stroke="black" points="497,-446 399,-446 399,-410 497,-410 497,-446"/>
<text text-anchor="middle" x="448" y="-425.2" font-family="Courier,monospace" font-size="11.00">Krediidipank</text>
</g>
<!-- \\RKD\\Banklink\\Banklink -->
<g id="node17" class="node"><title>\\RKD\\Banklink\\Banklink</title>
<polygon fill="none" stroke="black" points="327,-257 243,-257 243,-221 327,-221 327,-257"/>
<text text-anchor="start" x="251" y="-242.2" font-family="Courier,monospace" font-size="11.00">«abstract»</text>
<text text-anchor="start" x="257.5" y="-230.2" font-family="Courier,monospace" font-size="11.00">Banklink</text>
</g>
<!-- \\RKD\\Banklink\\Krediidipank&#45;&gt;\\RKD\\Banklink\\Banklink -->
<g id="edge1" class="edge"><title>\\RKD\\Banklink\\Krediidipank&#45;&gt;\\RKD\\Banklink\\Banklink</title>
<path fill="none" stroke="black" d="M409.625,-409.847C405.506,-407.149 401.531,-404.191 398,-401 353.939,-361.19 318.114,-300.836 299.629,-266.135"/>
<polygon fill="none" stroke="black" points="302.621,-264.303 294.883,-257.066 296.419,-267.549 302.621,-264.303"/>
</g>
<!-- \\RKD\\Banklink\\Liisi -->
<g id="node16" class="node"><title>\\RKD\\Banklink\\Liisi</title>
<polygon fill="none" stroke="black" points="475,-284 421,-284 421,-248 475,-248 475,-284"/>
<text text-anchor="middle" x="448" y="-263.2" font-family="Courier,monospace" font-size="11.00">Liisi</text>
</g>
<!-- \\RKD\\Banklink\\Liisi&#45;&gt;\\RKD\\Banklink\\Banklink -->
<g id="edge2" class="edge"><title>\\RKD\\Banklink\\Liisi&#45;&gt;\\RKD\\Banklink\\Banklink</title>
<path fill="none" stroke="black" d="M420.774,-261.602C398.157,-257.809 364.841,-252.222 336.993,-247.552"/>
<polygon fill="none" stroke="black" points="337.451,-244.08 327.01,-245.877 336.294,-250.983 337.451,-244.08"/>
</g>
<!-- \\RKD\\Banklink\\LHV -->
<g id="node18" class="node"><title>\\RKD\\Banklink\\LHV</title>
<polygon fill="none" stroke="black" points="475,-392 421,-392 421,-356 475,-356 475,-392"/>
<text text-anchor="middle" x="448" y="-371.2" font-family="Courier,monospace" font-size="11.00">LHV</text>
</g>
<!-- \\RKD\\Banklink\\LHV&#45;&gt;\\RKD\\Banklink\\Banklink -->
<g id="edge3" class="edge"><title>\\RKD\\Banklink\\LHV&#45;&gt;\\RKD\\Banklink\\Banklink</title>
<path fill="none" stroke="black" d="M420.785,-361.209C413.18,-357.066 405.035,-352.188 398,-347 364.405,-322.225 330.558,-288.008 309.005,-264.775"/>
<polygon fill="none" stroke="black" points="311.526,-262.345 302.185,-257.346 306.369,-267.08 311.526,-262.345"/>
</g>
<!-- \\RKD\\Banklink\\Swedbank -->
<g id="node19" class="node"><title>\\RKD\\Banklink\\Swedbank</title>
<polygon fill="none" stroke="black" points="483.5,-338 412.5,-338 412.5,-302 483.5,-302 483.5,-338"/>
<text text-anchor="middle" x="448" y="-317.2" font-family="Courier,monospace" font-size="11.00">Swedbank</text>
</g>
<!-- \\RKD\\Banklink\\Swedbank&#45;&gt;\\RKD\\Banklink\\Banklink -->
<g id="edge6" class="edge"><title>\\RKD\\Banklink\\Swedbank&#45;&gt;\\RKD\\Banklink\\Banklink</title>
<path fill="none" stroke="black" d="M412.461,-302.623C388.679,-290.659 356.849,-274.644 331.072,-261.676"/>
<polygon fill="none" stroke="black" points="332.382,-258.417 321.876,-257.049 329.236,-264.67 332.382,-258.417"/>
</g>
<!-- \\RKD\\Banklink\\Liizi -->
<g id="node20" class="node"><title>\\RKD\\Banklink\\Liizi</title>
<polygon fill="none" stroke="black" points="655,-284 601,-284 601,-248 655,-248 655,-284"/>
<text text-anchor="middle" x="628" y="-263.2" font-family="Courier,monospace" font-size="11.00">Liizi</text>
</g>
<!-- \\RKD\\Banklink\\Liizi&#45;&gt;\\RKD\\Banklink\\Liisi -->
<g id="edge7" class="edge"><title>\\RKD\\Banklink\\Liizi&#45;&gt;\\RKD\\Banklink\\Liisi</title>
<path fill="none" stroke="black" d="M600.735,-266C570.149,-266 519.449,-266 485.157,-266"/>
<polygon fill="none" stroke="black" points="485.082,-262.5 475.082,-266 485.082,-269.5 485.082,-262.5"/>
</g>
<!-- \\RKD\\Banklink\\Nordea -->
<g id="node21" class="node"><title>\\RKD\\Banklink\\Nordea</title>
<polygon fill="none" stroke="black" points="476.5,-230 419.5,-230 419.5,-194 476.5,-194 476.5,-230"/>
<text text-anchor="middle" x="448" y="-209.2" font-family="Courier,monospace" font-size="11.00">Nordea</text>
</g>
<!-- \\RKD\\Banklink\\Nordea&#45;&gt;\\RKD\\Banklink\\Banklink -->
<g id="edge14" class="edge"><title>\\RKD\\Banklink\\Nordea&#45;&gt;\\RKD\\Banklink\\Banklink</title>
<path fill="none" stroke="black" d="M419.323,-216.641C396.841,-220.412 364.519,-225.832 337.33,-230.392"/>
<polygon fill="none" stroke="black" points="336.475,-226.986 327.192,-232.092 337.633,-233.89 336.475,-226.986"/>
</g>
<!-- \\RKD\\Banklink\\Estcard -->
<g id="node22" class="node"><title>\\RKD\\Banklink\\Estcard</title>
<polygon fill="none" stroke="black" points="480,-176 416,-176 416,-140 480,-140 480,-176"/>
<text text-anchor="middle" x="448" y="-155.2" font-family="Courier,monospace" font-size="11.00">Estcard</text>
</g>
<!-- \\RKD\\Banklink\\Estcard&#45;&gt;\\RKD\\Banklink\\Banklink -->
<g id="edge15" class="edge"><title>\\RKD\\Banklink\\Estcard&#45;&gt;\\RKD\\Banklink\\Banklink</title>
<path fill="none" stroke="black" d="M415.958,-173.618C391.926,-185.708 358.294,-202.628 331.265,-216.227"/>
<polygon fill="none" stroke="black" points="329.366,-213.264 322.006,-220.885 332.512,-219.517 329.366,-213.264"/>
</g>
<!-- \\RKD\\Banklink\\SEB -->
<g id="node23" class="node"><title>\\RKD\\Banklink\\SEB</title>
<polygon fill="none" stroke="black" points="475,-122 421,-122 421,-86 475,-86 475,-122"/>
<text text-anchor="middle" x="448" y="-101.2" font-family="Courier,monospace" font-size="11.00">SEB</text>
</g>
<!-- \\RKD\\Banklink\\SEB&#45;&gt;\\RKD\\Banklink\\Banklink -->
<g id="edge16" class="edge"><title>\\RKD\\Banklink\\SEB&#45;&gt;\\RKD\\Banklink\\Banklink</title>
<path fill="none" stroke="black" d="M420.785,-116.791C413.18,-120.934 405.035,-125.812 398,-131 364.405,-155.775 330.558,-189.992 309.005,-213.225"/>
<polygon fill="none" stroke="black" points="306.369,-210.92 302.185,-220.654 311.526,-215.655 306.369,-210.92"/>
</g>
<!-- \\RKD\\Banklink\\Danskebank -->
<g id="node24" class="node"><title>\\RKD\\Banklink\\Danskebank</title>
<polygon fill="none" stroke="black" points="490,-68 406,-68 406,-32 490,-32 490,-68"/>
<text text-anchor="middle" x="448" y="-47.2" font-family="Courier,monospace" font-size="11.00">Danskebank</text>
</g>
<!-- \\RKD\\Banklink\\Danskebank&#45;&gt;\\RKD\\Banklink\\Banklink -->
<g id="edge17" class="edge"><title>\\RKD\\Banklink\\Danskebank&#45;&gt;\\RKD\\Banklink\\Banklink</title>
<path fill="none" stroke="black" d="M409.625,-68.1527C405.506,-70.8509 401.531,-73.8093 398,-77 353.939,-116.81 318.114,-177.164 299.629,-211.865"/>
<polygon fill="none" stroke="black" points="296.419,-210.451 294.883,-220.934 302.621,-213.697 296.419,-210.451"/>
</g>
</g>
</svg>
